<?xml version="1.0" standalone="no"?><svg xmlns="http://www.w3.org/2000/svg" viewBox="0 0 1440 320"><path fill="#0099ff" fill-opacity="1" d="M0,160L17.1,149.3C34.3,139,69,117,103,122.7C137.1,128,171,160,206,192C240,224,274,256,309,234.7C342.9,213,377,139,411,101.3C445.7,64,480,64,514,58.7C548.6,53,583,43,617,85.3C651.4,128,686,224,720,266.7C754.3,309,789,299,823,266.7C857.1,235,891,181,926,181.3C960,181,994,235,1029,245.3C1062.9,256,1097,224,1131,197.3C1165.7,171,1200,149,1234,122.7C1268.6,96,1303,64,1337,85.3C1371.4,107,1406,181,1423,218.7L1440,256L1440,320L1422.9,320C1405.7,320,1371,320,1337,320C1302.9,320,1269,320,1234,320C1200,320,1166,320,1131,320C1097.1,320,1063,320,1029,320C994.3,320,960,320,926,320C891.4,320,857,320,823,320C788.6,320,754,320,720,320C685.7,320,651,320,617,320C582.9,320,549,320,514,320C480,320,446,320,411,320C377.1,320,343,320,309,320C274.3,320,240,320,206,320C171.4,320,137,320,103,320C68.6,320,34,320,17,320L0,320Z"></path></svg>